<?xml version="1.0" encoding="utf-8" standalone="no"?>
<!DOCTYPE svg PUBLIC "-//W3C//DTD SVG 1.1//EN"
  "http://www.w3.org/Graphics/SVG/1.1/DTD/svg11.dtd">
<svg xmlns:xlink="http://www.w3.org/1999/xlink" width="227.16pt" height="320.36pt" viewBox="0 0 227.16 320.36" xmlns="http://www.w3.org/2000/svg" version="1.1">
 <metadata>
  <rdf:RDF xmlns:dc="http://purl.org/dc/elements/1.1/" xmlns:cc="http://creativecommons.org/ns#" xmlns:rdf="http://www.w3.org/1999/02/22-rdf-syntax-ns#">
   <cc:Work>
    <dc:type rdf:resource="http://purl.org/dc/dcmitype/StillImage"/>
    <dc:date>2026-08-30T17:54:33.292994</dc:date>
    <dc:format>image/svg+xml</dc:format>
    <dc:creator>
     <cc:Agent>
      <dc:title>Matplotlib v3.11.1, https://matplotlib.org/</dc:title>
     </cc:Agent>
    </dc:creator>
   </cc:Work>
  </rdf:RDF>
 </metadata>
 <defs>
  <style type="text/css">*{stroke-linejoin: round; stroke-linecap: butt}</style>
 </defs>
 <g id="figure_1">
  <g id="patch_1">
   <path d="M 0 320.36 
L 227.16 320.36 
L 227.16 0 
L 0 0 
z
" style="fill: #ffffff"/>
  </g>
  <g id="axes_1">
   <g id="patch_2">
    <path d="M 34.92 161.157326 
L 223.72 161.157326 
L 223.72 43.469 
L 34.92 43.469 
z
" style="fill: #ffffff"/>
   </g>
   <g id="matplotlib.axis_1">
    <g id="xtick_1">
     <g id="line2d_1">
      <path d="M 34.92 161.157326 
L 34.92 43.469 
" clip-path="url(#p3abb49ee03)" style="fill: none; stroke: #b0b0b0; stroke-opacity: 0.3; stroke-width: 0.5; stroke-linecap: square"/>
     </g>
     <g id="line2d_2">
      <defs>
       <path id="m1d44fc8b0e" d="M 0 0 
L 0 3.5 
" style="stroke: #000000; stroke-width: 0.7"/>
      </defs>
      <g>
       <use xlink:href="#m1d44fc8b0e" x="34.92" y="161.157326" style="stroke: #000000; stroke-width: 0.7"/>
      </g>
     </g>
    </g>
    <g id="xtick_2">
     <g id="line2d_3">
      <path d="M 61.891429 161.157326 
L 61.891429 43.469 
" clip-path="url(#p3abb49ee03)" style="fill: none; stroke: #b0b0b0; stroke-opacity: 0.3; stroke-width: 0.5; stroke-linecap: square"/>
     </g>
     <g id="line2d_4">
      <g>
       <use xlink:href="#m1d44fc8b0e" x="61.891429" y="161.157326" style="stroke: #000000; stroke-width: 0.7"/>
      </g>
     </g>
    </g>
    <g id="xtick_3">
     <g id="line2d_5">
      <path d="M 88.862857 161.157326 
L 88.862857 43.469 
" clip-path="url(#p3abb49ee03)" style="fill: none; stroke: #b0b0b0; stroke-opacity: 0.3; stroke-width: 0.5; stroke-linecap: square"/>
     </g>
     <g id="line2d_6">
      <g>
       <use xlink:href="#m1d44fc8b0e" x="88.862857" y="161.157326" style="stroke: #000000; stroke-width: 0.7"/>
      </g>
     </g>
    </g>
    <g id="xtick_4">
     <g id="line2d_7">
      <path d="M 115.834286 161.157326 
L 115.834286 43.469 
" clip-path="url(#p3abb49ee03)" style="fill: none; stroke: #b0b0b0; stroke-opacity: 0.3; stroke-width: 0.5; stroke-linecap: square"/>
     </g>
     <g id="line2d_8">
      <g>
       <use xlink:href="#m1d44fc8b0e" x="115.834286" y="161.157326" style="stroke: #000000; stroke-width: 0.7"/>
      </g>
     </g>
    </g>
    <g id="xtick_5">
     <g id="line2d_9">
      <path d="M 142.805714 161.157326 
L 142.805714 43.469 
" clip-path="url(#p3abb49ee03)" style="fill: none; stroke: #b0b0b0; stroke-opacity: 0.3; stroke-width: 0.5; stroke-linecap: square"/>
     </g>
     <g id="line2d_10">
      <g>
       <use xlink:href="#m1d44fc8b0e" x="142.805714" y="161.157326" style="stroke: #000000; stroke-width: 0.7"/>
      </g>
     </g>
    </g>
    <g id="xtick_6">
     <g id="line2d_11">
      <path d="M 169.777143 161.157326 
L 169.777143 43.469 
" clip-path="url(#p3abb49ee03)" style="fill: none; stroke: #b0b0b0; stroke-opacity: 0.3; stroke-width: 0.5; stroke-linecap: square"/>
     </g>
     <g id="line2d_12">
      <g>
       <use xlink:href="#m1d44fc8b0e" x="169.777143" y="161.157326" style="stroke: #000000; stroke-width: 0.7"/>
      </g>
     </g>
    </g>
    <g id="xtick_7">
     <g id="line2d_13">
      <path d="M 196.748571 161.157326 
L 196.748571 43.469 
" clip-path="url(#p3abb49ee03)" style="fill: none; stroke: #b0b0b0; stroke-opacity: 0.3; stroke-width: 0.5; stroke-linecap: square"/>
     </g>
     <g id="line2d_14">
      <g>
       <use xlink:href="#m1d44fc8b0e" x="196.748571" y="161.157326" style="stroke: #000000; stroke-width: 0.7"/>
      </g>
     </g>
    </g>
    <g id="xtick_8">
     <g id="line2d_15">
      <path d="M 223.72 161.157326 
L 223.72 43.469 
" clip-path="url(#p3abb49ee03)" style="fill: none; stroke: #b0b0b0; stroke-opacity: 0.3; stroke-width: 0.5; stroke-linecap: square"/>
     </g>
     <g id="line2d_16">
      <g>
       <use xlink:href="#m1d44fc8b0e" x="223.72" y="161.157326" style="stroke: #000000; stroke-width: 0.7"/>
      </g>
     </g>
    </g>
   </g>
   <g id="matplotlib.axis_2">
    <g id="ytick_1">
     <g id="line2d_17">
      <path d="M 34.92 138.471033 
L 223.72 138.471033 
" clip-path="url(#p3abb49ee03)" style="fill: none; stroke: #b0b0b0; stroke-opacity: 0.3; stroke-width: 0.5; stroke-linecap: square"/>
     </g>
     <g id="line2d_18">
      <defs>
       <path id="mb44b6825b1" d="M 0 0 
L -3.5 0 
" style="stroke: #000000; stroke-width: 0.7"/>
      </defs>
      <g>
       <use xlink:href="#mb44b6825b1" x="34.92" y="138.471033" style="stroke: #000000; stroke-width: 0.7"/>
      </g>
     </g>
     <g id="text_1">
      <text style="font-size: 8px; font-family: 'STIX Two Text', 'STIXGeneral', 'Times New Roman', 'DejaVu Serif', serif; text-anchor: end" x="27.92" y="141.471033" transform="rotate(-0 27.92 141.471033)">−15</text>
     </g>
    </g>
    <g id="ytick_2">
     <g id="line2d_19">
      <path d="M 34.92 108.587112 
L 223.72 108.587112 
" clip-path="url(#p3abb49ee03)" style="fill: none; stroke: #b0b0b0; stroke-opacity: 0.3; stroke-width: 0.5; stroke-linecap: square"/>
     </g>
     <g id="line2d_20">
      <g>
       <use xlink:href="#mb44b6825b1" x="34.92" y="108.587112" style="stroke: #000000; stroke-width: 0.7"/>
      </g>
     </g>
     <g id="text_2">
      <text style="font-size: 8px; font-family: 'STIX Two Text', 'STIXGeneral', 'Times New Roman', 'DejaVu Serif', serif; text-anchor: end" x="27.92" y="111.587112" transform="rotate(-0 27.92 111.587112)">−10</text>
     </g>
    </g>
    <g id="ytick_3">
     <g id="line2d_21">
      <path d="M 34.92 78.703191 
L 223.72 78.703191 
" clip-path="url(#p3abb49ee03)" style="fill: none; stroke: #b0b0b0; stroke-opacity: 0.3; stroke-width: 0.5; stroke-linecap: square"/>
     </g>
     <g id="line2d_22">
      <g>
       <use xlink:href="#mb44b6825b1" x="34.92" y="78.703191" style="stroke: #000000; stroke-width: 0.7"/>
      </g>
     </g>
     <g id="text_3">
      <text style="font-size: 8px; font-family: 'STIX Two Text', 'STIXGeneral', 'Times New Roman', 'DejaVu Serif', serif; text-anchor: end" x="27.92" y="81.703191" transform="rotate(-0 27.92 81.703191)">−5</text>
     </g>
    </g>
    <g id="ytick_4">
     <g id="line2d_23">
      <path d="M 34.92 48.819271 
L 223.72 48.819271 
" clip-path="url(#p3abb49ee03)" style="fill: none; stroke: #b0b0b0; stroke-opacity: 0.3; stroke-width: 0.5; stroke-linecap: square"/>
     </g>
     <g id="line2d_24">
      <g>
       <use xlink:href="#mb44b6825b1" x="34.92" y="48.819271" style="stroke: #000000; stroke-width: 0.7"/>
      </g>
     </g>
     <g id="text_4">
      <text style="font-size: 8px; font-family: 'STIX Two Text', 'STIXGeneral', 'Times New Roman', 'DejaVu Serif', serif; text-anchor: end" x="27.92" y="51.819271" transform="rotate(-0 27.92 51.819271)">0</text>
     </g>
    </g>
    <g id="text_5">
     <text style="font-size: 9px; font-family: 'STIX Two Text', 'STIXGeneral', 'Times New Roman', 'DejaVu Serif', serif; text-anchor: middle" x="8.19" y="102.313163" transform="rotate(-90 8.19 102.313163)">|S| (dB)</text>
    </g>
   </g>
   <g id="line2d_25">
    <path d="M 34.92 48.819548 
L 124.608774 48.848076 
L 125.499723 48.871661 
L 126.984636 49.117732 
L 127.875584 48.947413 
L 128.766532 48.82907 
L 129.65748 49.061153 
L 130.548428 49.25716 
L 131.142394 49.146439 
L 132.033342 48.847057 
L 132.627307 48.879144 
L 134.409203 49.472114 
L 135.003169 49.193891 
L 135.597134 48.874739 
L 135.894117 48.826774 
L 136.1911 48.897759 
L 136.785065 49.348197 
L 137.37903 49.862395 
L 137.676013 49.983767 
L 137.972996 49.957706 
L 138.566961 49.493424 
L 139.160927 48.915306 
L 139.457909 48.827712 
L 139.754892 48.970741 
L 140.348857 49.876692 
L 140.942823 50.922577 
L 141.239806 51.170573 
L 141.536788 51.111065 
L 141.833771 50.730147 
L 142.724719 48.91555 
L 143.021702 48.883974 
L 143.318684 49.486036 
L 143.91265 52.252034 
L 144.506615 54.944842 
L 144.803598 55.326139 
L 145.100581 54.70051 
L 145.397563 53.021611 
L 145.991529 48.915013 
L 146.288511 50.036016 
L 146.585494 55.918382 
L 147.476442 88.871641 
L 148.36739 117.29778 
L 148.961356 130.508334 
L 149.555321 139.198535 
L 150.149286 143.685016 
L 150.446269 144.551347 
L 150.743252 144.62397 
L 151.040235 143.977098 
L 151.337217 142.651852 
L 151.931183 137.919932 
L 152.525148 129.916389 
L 153.119113 117.644839 
L 153.713079 100.111334 
L 155.197992 49.650047 
L 155.494975 49.105942 
L 156.385923 55.631167 
L 156.682906 56.173536 
L 156.979888 55.597029 
L 157.573854 52.36912 
L 158.167819 49.35431 
L 158.464802 48.837907 
L 158.761785 49.04935 
L 159.949715 51.697781 
L 160.246698 51.662306 
L 160.543681 51.254788 
L 161.731612 48.894749 
L 162.028594 48.840101 
L 162.325577 49.065651 
L 163.216525 50.239685 
L 163.513508 50.391627 
L 163.81049 50.326893 
L 164.404456 49.704161 
L 164.998421 49.003795 
L 165.295404 48.838915 
L 165.592387 48.849197 
L 166.186352 49.271386 
L 166.780317 49.740525 
L 167.0773 49.821701 
L 167.374283 49.766868 
L 167.968248 49.357099 
L 168.562214 48.920147 
L 169.156179 48.849189 
L 169.750144 49.153301 
L 170.34411 49.472412 
L 170.938075 49.478827 
L 172.719971 48.848689 
L 174.501868 49.309051 
L 176.283764 48.850467 
L 178.06566 49.198175 
L 179.847556 48.855212 
L 181.33247 49.147404 
L 182.223418 48.979483 
L 183.114366 48.838523 
L 184.302297 49.04381 
L 185.193245 49.059968 
L 186.678158 48.846623 
L 189.05402 48.966152 
L 190.241951 48.855263 
L 192.320829 48.974182 
L 193.805743 48.863558 
L 195.587639 48.976096 
L 197.369535 48.870684 
L 198.854449 48.977845 
L 200.933328 48.876105 
L 202.418241 48.965839 
L 204.200137 48.849577 
L 205.982033 48.95618 
L 207.76393 48.848942 
L 209.545826 48.947677 
L 211.327722 48.849317 
L 212.812635 48.962328 
L 215.188497 48.885779 
L 216.376428 48.952646 
L 218.455307 48.857432 
L 219.94022 48.939869 
L 222.019099 48.865789 
L 223.800995 48.907413 
L 225.582891 48.87569 
L 227.66177 48.884792 
L 228.16 48.874645 
L 228.16 48.874645 
" clip-path="url(#p3abb49ee03)" style="fill: none; stroke: #2a78d6; stroke-width: 1.5; stroke-linecap: round"/>
   </g>
   <g id="patch_3">
    <path d="M 34.92 161.157326 
L 34.92 43.469 
" style="fill: none; stroke: #000000; stroke-width: 0.7; stroke-linejoin: miter; stroke-linecap: square"/>
   </g>
   <g id="patch_4">
    <path d="M 34.92 161.157326 
L 223.72 161.157326 
" style="fill: none; stroke: #000000; stroke-width: 0.7; stroke-linejoin: miter; stroke-linecap: square"/>
   </g>
   <g id="line2d_26">
    <path d="M 34.92 48.819077 
L 91.04973 48.833422 
L 95.801453 48.821215 
L 102.335072 48.842958 
L 104.116968 48.861915 
L 105.898865 48.858562 
L 107.680761 48.859089 
L 109.165674 48.900129 
L 111.244553 48.854075 
L 113.026449 48.909189 
L 114.808345 48.849405 
L 116.590242 48.946189 
L 118.372138 48.843713 
L 120.154034 48.996832 
L 121.93593 48.836556 
L 124.014809 49.032679 
L 125.499723 48.830723 
L 127.578601 49.135798 
L 129.063515 48.827382 
L 129.65748 48.969468 
L 130.548428 49.297368 
L 131.142394 49.299807 
L 132.92429 48.879077 
L 133.815238 49.384624 
L 134.409203 49.610977 
L 135.003169 49.463873 
L 136.1911 48.825016 
L 136.488082 48.896822 
L 137.082048 49.411051 
L 137.676013 50.018753 
L 137.972996 50.169521 
L 138.269979 50.150062 
L 138.566961 49.954965 
L 139.457909 48.941388 
L 139.754892 48.825585 
L 140.051875 48.979344 
L 140.64584 50.024485 
L 141.239806 51.24578 
L 141.536788 51.538303 
L 141.833771 51.474663 
L 142.130754 51.037232 
L 143.021702 48.924717 
L 143.318684 48.902282 
L 143.615667 49.63798 
L 144.209632 52.907046 
L 144.803598 55.915033 
L 145.100581 56.23588 
L 145.397563 55.364728 
L 146.288511 48.824503 
L 146.585494 51.363922 
L 146.882477 59.744487 
L 148.36739 117.624201 
L 148.961356 133.568787 
L 149.555321 145.112064 
L 150.149286 152.341494 
L 150.446269 154.409854 
L 150.743252 155.536084 
L 151.040235 155.807856 
L 151.337217 155.311339 
L 151.6342 154.115264 
L 152.228165 149.740959 
L 152.822131 142.510713 
L 153.416096 131.593868 
L 154.010061 115.747385 
L 154.604027 93.910885 
L 155.494975 55.786062 
L 155.791958 49.538654 
L 156.08894 49.35197 
L 156.979888 56.867645 
L 157.276871 57.224577 
L 157.573854 56.328125 
L 158.761785 49.185514 
L 159.058767 48.834647 
L 159.35575 49.292242 
L 160.246698 51.918703 
L 160.543681 52.203017 
L 160.840664 52.009267 
L 161.434629 50.603015 
L 162.028594 49.143058 
L 162.325577 48.843141 
L 162.62256 48.909279 
L 163.216525 49.76993 
L 163.81049 50.571588 
L 164.107473 50.653255 
L 164.404456 50.486742 
L 165.889369 48.824093 
L 166.186352 48.914319 
L 167.374283 49.951737 
L 167.671266 49.981842 
L 168.265231 49.617431 
L 169.156179 48.877133 
L 169.453162 48.824276 
L 170.047127 49.08188 
L 170.938075 49.62027 
L 171.532041 49.538049 
L 172.719971 48.853916 
L 173.313937 48.892345 
L 174.501868 49.42213 
L 175.095833 49.352079 
L 176.283764 48.84323 
L 176.877729 48.885272 
L 178.06566 49.294123 
L 178.659625 49.232807 
L 179.847556 48.839037 
L 180.441522 48.882289 
L 181.629452 49.204708 
L 182.223418 49.149068 
L 183.708331 48.839136 
L 185.78721 49.085739 
L 186.975141 48.841848 
L 187.866089 48.952397 
L 188.757037 49.088717 
L 189.647985 48.974201 
L 190.538933 48.846556 
L 191.726864 49.003619 
L 192.617812 49.031698 
L 194.399708 48.871171 
L 196.181604 48.994824 
L 197.666518 48.856919 
L 199.745397 48.964306 
L 201.23031 48.861719 
L 203.012206 48.975071 
L 204.794103 48.865482 
L 206.279016 48.985298 
L 208.357895 48.8683 
L 209.842809 48.977519 
L 211.921687 48.87074 
L 213.406601 48.969386 
L 215.188497 48.841055 
L 216.970393 48.959964 
L 218.752289 48.845206 
L 220.534186 48.948347 
L 222.316082 48.853637 
L 224.097978 48.934121 
L 225.879874 48.866011 
L 227.66177 48.917528 
L 228.16 48.883255 
L 228.16 48.883255 
" clip-path="url(#p3abb49ee03)" style="fill: none; stroke-dasharray: 1.3,1.82; stroke-dashoffset: 0; stroke: #eb6834; stroke-width: 1.3; stroke-linecap: round"/>
   </g>
   <g id="text_6">
    <text style="font-size: 9.5px; font-family: 'STIX Two Text', 'STIXGeneral', 'Times New Roman', 'DejaVu Serif', serif; text-anchor: start" x="34.92" y="37.469" transform="rotate(-0 34.92 37.469)">Direct transmission (signal → signal)</text>
   </g>
  </g>
  <g id="axes_2">
   <g id="patch_5">
    <path d="M 34.92 290.92 
L 223.72 290.92 
L 223.72 188.582326 
L 34.92 188.582326 
z
" style="fill: #ffffff"/>
   </g>
   <g id="matplotlib.axis_3">
    <g id="xtick_9">
     <g id="line2d_27">
      <path d="M 34.92 290.92 
L 34.92 188.582326 
" clip-path="url(#pd4cb04fd58)" style="fill: none; stroke: #b0b0b0; stroke-opacity: 0.3; stroke-width: 0.5; stroke-linecap: square"/>
     </g>
     <g id="line2d_28">
      <g>
       <use xlink:href="#m1d44fc8b0e" x="34.92" y="290.92" style="stroke: #000000; stroke-width: 0.7"/>
      </g>
     </g>
     <g id="text_7">
      <text style="font-size: 8px; font-family: 'STIX Two Text', 'STIXGeneral', 'Times New Roman', 'DejaVu Serif', serif; text-anchor: middle" x="34.92" y="303.92" transform="rotate(-0 34.92 303.92)">1</text>
     </g>
    </g>
    <g id="xtick_10">
     <g id="line2d_29">
      <path d="M 61.891429 290.92 
L 61.891429 188.582326 
" clip-path="url(#pd4cb04fd58)" style="fill: none; stroke: #b0b0b0; stroke-opacity: 0.3; stroke-width: 0.5; stroke-linecap: square"/>
     </g>
     <g id="line2d_30">
      <g>
       <use xlink:href="#m1d44fc8b0e" x="61.891429" y="290.92" style="stroke: #000000; stroke-width: 0.7"/>
      </g>
     </g>
     <g id="text_8">
      <text style="font-size: 8px; font-family: 'STIX Two Text', 'STIXGeneral', 'Times New Roman', 'DejaVu Serif', serif; text-anchor: middle" x="61.891429" y="303.92" transform="rotate(-0 61.891429 303.92)">2</text>
     </g>
    </g>
    <g id="xtick_11">
     <g id="line2d_31">
      <path d="M 88.862857 290.92 
L 88.862857 188.582326 
" clip-path="url(#pd4cb04fd58)" style="fill: none; stroke: #b0b0b0; stroke-opacity: 0.3; stroke-width: 0.5; stroke-linecap: square"/>
     </g>
     <g id="line2d_32">
      <g>
       <use xlink:href="#m1d44fc8b0e" x="88.862857" y="290.92" style="stroke: #000000; stroke-width: 0.7"/>
      </g>
     </g>
     <g id="text_9">
      <text style="font-size: 8px; font-family: 'STIX Two Text', 'STIXGeneral', 'Times New Roman', 'DejaVu Serif', serif; text-anchor: middle" x="88.862857" y="303.92" transform="rotate(-0 88.862857 303.92)">3</text>
     </g>
    </g>
    <g id="xtick_12">
     <g id="line2d_33">
      <path d="M 115.834286 290.92 
L 115.834286 188.582326 
" clip-path="url(#pd4cb04fd58)" style="fill: none; stroke: #b0b0b0; stroke-opacity: 0.3; stroke-width: 0.5; stroke-linecap: square"/>
     </g>
     <g id="line2d_34">
      <g>
       <use xlink:href="#m1d44fc8b0e" x="115.834286" y="290.92" style="stroke: #000000; stroke-width: 0.7"/>
      </g>
     </g>
     <g id="text_10">
      <text style="font-size: 8px; font-family: 'STIX Two Text', 'STIXGeneral', 'Times New Roman', 'DejaVu Serif', serif; text-anchor: middle" x="115.834286" y="303.92" transform="rotate(-0 115.834286 303.92)">4</text>
     </g>
    </g>
    <g id="xtick_13">
     <g id="line2d_35">
      <path d="M 142.805714 290.92 
L 142.805714 188.582326 
" clip-path="url(#pd4cb04fd58)" style="fill: none; stroke: #b0b0b0; stroke-opacity: 0.3; stroke-width: 0.5; stroke-linecap: square"/>
     </g>
     <g id="line2d_36">
      <g>
       <use xlink:href="#m1d44fc8b0e" x="142.805714" y="290.92" style="stroke: #000000; stroke-width: 0.7"/>
      </g>
     </g>
     <g id="text_11">
      <text style="font-size: 8px; font-family: 'STIX Two Text', 'STIXGeneral', 'Times New Roman', 'DejaVu Serif', serif; text-anchor: middle" x="142.805714" y="303.92" transform="rotate(-0 142.805714 303.92)">5</text>
     </g>
    </g>
    <g id="xtick_14">
     <g id="line2d_37">
      <path d="M 169.777143 290.92 
L 169.777143 188.582326 
" clip-path="url(#pd4cb04fd58)" style="fill: none; stroke: #b0b0b0; stroke-opacity: 0.3; stroke-width: 0.5; stroke-linecap: square"/>
     </g>
     <g id="line2d_38">
      <g>
       <use xlink:href="#m1d44fc8b0e" x="169.777143" y="290.92" style="stroke: #000000; stroke-width: 0.7"/>
      </g>
     </g>
     <g id="text_12">
      <text style="font-size: 8px; font-family: 'STIX Two Text', 'STIXGeneral', 'Times New Roman', 'DejaVu Serif', serif; text-anchor: middle" x="169.777143" y="303.92" transform="rotate(-0 169.777143 303.92)">6</text>
     </g>
    </g>
    <g id="xtick_15">
     <g id="line2d_39">
      <path d="M 196.748571 290.92 
L 196.748571 188.582326 
" clip-path="url(#pd4cb04fd58)" style="fill: none; stroke: #b0b0b0; stroke-opacity: 0.3; stroke-width: 0.5; stroke-linecap: square"/>
     </g>
     <g id="line2d_40">
      <g>
       <use xlink:href="#m1d44fc8b0e" x="196.748571" y="290.92" style="stroke: #000000; stroke-width: 0.7"/>
      </g>
     </g>
     <g id="text_13">
      <text style="font-size: 8px; font-family: 'STIX Two Text', 'STIXGeneral', 'Times New Roman', 'DejaVu Serif', serif; text-anchor: middle" x="196.748571" y="303.92" transform="rotate(-0 196.748571 303.92)">7</text>
     </g>
    </g>
    <g id="xtick_16">
     <g id="line2d_41">
      <path d="M 223.72 290.92 
L 223.72 188.582326 
" clip-path="url(#pd4cb04fd58)" style="fill: none; stroke: #b0b0b0; stroke-opacity: 0.3; stroke-width: 0.5; stroke-linecap: square"/>
     </g>
     <g id="line2d_42">
      <g>
       <use xlink:href="#m1d44fc8b0e" x="223.72" y="290.92" style="stroke: #000000; stroke-width: 0.7"/>
      </g>
     </g>
     <g id="text_14">
      <text style="font-size: 8px; font-family: 'STIX Two Text', 'STIXGeneral', 'Times New Roman', 'DejaVu Serif', serif; text-anchor: middle" x="223.72" y="303.92" transform="rotate(-0 223.72 303.92)">8</text>
     </g>
    </g>
    <g id="text_15">
     <text style="font-size: 9px; font-family: 'STIX Two Text', 'STIXGeneral', 'Times New Roman', 'DejaVu Serif', serif; text-anchor: middle" x="129.32" y="316.67" transform="rotate(-0 129.32 316.67)">Signal frequency (GHz)</text>
    </g>
   </g>
   <g id="matplotlib.axis_4">
    <g id="ytick_5">
     <g id="line2d_43">
      <path d="M 34.92 288.951925 
L 223.72 288.951925 
" clip-path="url(#pd4cb04fd58)" style="fill: none; stroke: #b0b0b0; stroke-opacity: 0.3; stroke-width: 0.5; stroke-linecap: square"/>
     </g>
     <g id="line2d_44">
      <g>
       <use xlink:href="#mb44b6825b1" x="34.92" y="288.951925" style="stroke: #000000; stroke-width: 0.7"/>
      </g>
     </g>
     <g id="text_16">
      <text style="font-size: 8px; font-family: 'STIX Two Text', 'STIXGeneral', 'Times New Roman', 'DejaVu Serif', serif; text-anchor: end" x="27.92" y="291.951925" transform="rotate(-0 27.92 291.951925)">−80</text>
     </g>
    </g>
    <g id="ytick_6">
     <g id="line2d_45">
      <path d="M 34.92 264.99651 
L 223.72 264.99651 
" clip-path="url(#pd4cb04fd58)" style="fill: none; stroke: #b0b0b0; stroke-opacity: 0.3; stroke-width: 0.5; stroke-linecap: square"/>
     </g>
     <g id="line2d_46">
      <g>
       <use xlink:href="#mb44b6825b1" x="34.92" y="264.99651" style="stroke: #000000; stroke-width: 0.7"/>
      </g>
     </g>
     <g id="text_17">
      <text style="font-size: 8px; font-family: 'STIX Two Text', 'STIXGeneral', 'Times New Roman', 'DejaVu Serif', serif; text-anchor: end" x="27.92" y="267.99651" transform="rotate(-0 27.92 267.99651)">−60</text>
     </g>
    </g>
    <g id="ytick_7">
     <g id="line2d_47">
      <path d="M 34.92 241.041094 
L 223.72 241.041094 
" clip-path="url(#pd4cb04fd58)" style="fill: none; stroke: #b0b0b0; stroke-opacity: 0.3; stroke-width: 0.5; stroke-linecap: square"/>
     </g>
     <g id="line2d_48">
      <g>
       <use xlink:href="#mb44b6825b1" x="34.92" y="241.041094" style="stroke: #000000; stroke-width: 0.7"/>
      </g>
     </g>
     <g id="text_18">
      <text style="font-size: 8px; font-family: 'STIX Two Text', 'STIXGeneral', 'Times New Roman', 'DejaVu Serif', serif; text-anchor: end" x="27.92" y="244.041094" transform="rotate(-0 27.92 244.041094)">−40</text>
     </g>
    </g>
    <g id="ytick_8">
     <g id="line2d_49">
      <path d="M 34.92 217.085678 
L 223.72 217.085678 
" clip-path="url(#pd4cb04fd58)" style="fill: none; stroke: #b0b0b0; stroke-opacity: 0.3; stroke-width: 0.5; stroke-linecap: square"/>
     </g>
     <g id="line2d_50">
      <g>
       <use xlink:href="#mb44b6825b1" x="34.92" y="217.085678" style="stroke: #000000; stroke-width: 0.7"/>
      </g>
     </g>
     <g id="text_19">
      <text style="font-size: 8px; font-family: 'STIX Two Text', 'STIXGeneral', 'Times New Roman', 'DejaVu Serif', serif; text-anchor: end" x="27.92" y="220.085678" transform="rotate(-0 27.92 220.085678)">−20</text>
     </g>
    </g>
    <g id="ytick_9">
     <g id="line2d_51">
      <path d="M 34.92 193.130262 
L 223.72 193.130262 
" clip-path="url(#pd4cb04fd58)" style="fill: none; stroke: #b0b0b0; stroke-opacity: 0.3; stroke-width: 0.5; stroke-linecap: square"/>
     </g>
     <g id="line2d_52">
      <g>
       <use xlink:href="#mb44b6825b1" x="34.92" y="193.130262" style="stroke: #000000; stroke-width: 0.7"/>
      </g>
     </g>
     <g id="text_20">
      <text style="font-size: 8px; font-family: 'STIX Two Text', 'STIXGeneral', 'Times New Roman', 'DejaVu Serif', serif; text-anchor: end" x="27.92" y="196.130262" transform="rotate(-0 27.92 196.130262)">0</text>
     </g>
    </g>
    <g id="text_21">
     <text style="font-size: 9px; font-family: 'STIX Two Text', 'STIXGeneral', 'Times New Roman', 'DejaVu Serif', serif; text-anchor: middle" x="8.19" y="239.751163" transform="rotate(-90 8.19 239.751163)">|S| (dB)</text>
    </g>
   </g>
   <g id="line2d_53">
    <path d="M 34.92 253.528004 
L 35.216983 248.381541 
L 35.513965 245.353737 
L 35.810948 243.476958 
L 36.107931 242.402569 
L 36.404913 241.986855 
L 36.701896 242.187893 
L 36.998879 243.042006 
L 37.295862 244.684455 
L 37.592844 247.444805 
L 37.889827 252.222826 
L 38.18681 263.208058 
L 38.483792 263.572452 
L 38.780775 252.10792 
L 39.077758 247.09302 
L 39.37474 244.131312 
L 39.671723 242.300016 
L 39.968706 241.263015 
L 40.265689 240.882139 
L 40.562671 241.119321 
L 40.859654 242.015221 
L 41.156637 243.712472 
L 41.453619 246.558212 
L 41.750602 251.515368 
L 42.047585 263.35788 
L 42.344567 261.334841 
L 42.64155 250.651948 
L 42.938533 245.812675 
L 43.235516 242.938522 
L 43.532498 241.166418 
L 43.829481 240.177347 
L 44.126464 239.840813 
L 44.423446 240.12408 
L 44.720429 241.073791 
L 45.017412 242.842793 
L 45.314394 245.803044 
L 45.611377 251.009932 
L 45.90836 264.218905 
L 46.205342 258.959422 
L 46.502325 249.150454 
L 46.799308 244.525481 
L 47.096291 241.759501 
L 47.393273 240.060476 
L 47.690256 239.130457 
L 47.987239 238.84862 
L 48.284221 239.18908 
L 48.581204 240.206293 
L 48.878187 242.066724 
L 49.175169 245.176353 
L 49.472152 250.723775 
L 49.769135 266.221225 
L 50.3631 247.601375 
L 50.660083 243.222634 
L 50.957066 240.583978 
L 51.254048 238.971763 
L 51.551031 238.112317 
L 51.848014 237.896321 
L 52.144996 238.306301 
L 52.441979 239.406621 
L 52.738962 241.381565 
L 53.035945 244.683335 
L 53.332927 250.693928 
L 53.62991 270.642134 
L 53.926893 254.012711 
L 54.223875 246.007665 
L 54.520858 241.899764 
L 54.817841 239.405695 
L 55.114823 237.893657 
L 55.411806 237.116625 
L 55.708789 236.978437 
L 56.005771 237.471658 
L 56.302754 238.673015 
L 56.599737 240.789989 
L 56.89672 244.337905 
L 57.193702 250.987151 
L 57.490685 286.268288 
L 57.787668 251.524159 
L 58.08465 244.375474 
L 58.381633 240.555787 
L 58.678616 238.221459 
L 58.975598 236.822488 
L 59.272581 236.140043 
L 59.569564 236.092574 
L 59.866547 236.684429 
L 60.163529 238.00769 
L 60.460512 240.300181 
L 60.757495 244.16484 
L 61.054477 251.722637 
L 61.35146 271.947201 
L 61.648443 249.062104 
L 61.945425 242.712822 
L 62.242408 239.192109 
L 62.539391 237.030537 
L 62.836374 235.757044 
L 63.133356 235.181775 
L 63.430339 235.239088 
L 63.727322 235.947053 
L 64.024304 237.416897 
L 64.321287 239.92667 
L 64.61827 244.204262 
L 65.212235 261.737297 
L 65.509218 246.642983 
L 65.8062 241.028662 
L 66.103183 237.812052 
L 66.400166 235.834261 
L 66.697149 234.698281 
L 66.994131 234.243364 
L 67.291114 234.420972 
L 67.588097 235.265173 
L 67.885079 236.911357 
L 68.182062 239.692077 
L 68.479045 244.520558 
L 68.776027 255.712613 
L 69.07301 255.509134 
L 69.369993 244.27721 
L 69.666976 239.332243 
L 69.963958 236.420429 
L 70.260941 234.635773 
L 70.557924 233.649163 
L 70.854906 233.328613 
L 71.151889 233.64389 
L 71.448872 234.647903 
L 71.745854 236.507161 
L 72.042837 239.630331 
L 72.33982 245.221084 
L 72.636803 261.025391 
L 73.230768 241.971099 
L 73.527751 237.632716 
L 73.824733 235.02324 
L 74.121716 233.439846 
L 74.418699 232.614594 
L 74.715681 232.443611 
L 75.012664 232.916352 
L 75.309647 234.10835 
L 75.606629 236.227355 
L 75.903612 239.792681 
L 76.200595 246.500198 
L 76.497578 281.725032 
L 76.79456 246.803601 
L 77.091543 239.728301 
L 77.388526 235.938933 
L 77.685508 233.627462 
L 77.982491 232.252788 
L 78.279474 231.601395 
L 78.576456 231.59682 
L 78.873439 232.250013 
L 79.170422 233.664508 
L 79.467405 236.104742 
L 79.764387 240.259588 
L 80.358353 259.812826 
L 80.655335 243.345486 
L 80.952318 237.550821 
L 81.249301 234.259393 
L 81.546283 232.240928 
L 81.843266 231.08238 
L 82.140249 230.618335 
L 82.437232 230.79924 
L 82.734214 231.660202 
L 83.031197 233.3408 
L 83.32818 236.187053 
L 83.625162 241.166674 
L 83.922145 253.118093 
L 84.219128 250.793534 
L 84.51611 240.23601 
L 84.813093 235.439765 
L 85.110076 232.60231 
L 85.407058 230.872269 
L 85.704041 229.937852 
L 86.001024 229.676184 
L 86.298007 230.064691 
L 86.594989 231.166822 
L 86.891972 233.17086 
L 87.188955 236.547103 
L 87.485937 242.769962 
L 87.78292 265.564546 
L 88.079903 245.048216 
L 88.376885 237.387019 
L 88.673868 233.395891 
L 88.970851 230.975757 
L 89.267834 229.530907 
L 89.564816 228.829863 
L 89.861799 228.787822 
L 90.158782 229.410326 
L 90.455764 230.796001 
L 90.752747 233.202786 
L 91.04973 237.304583 
L 91.346712 245.65184 
L 91.643695 257.694276 
L 91.940678 240.61401 
L 92.237661 234.742669 
L 92.534643 231.420045 
L 92.831626 229.387825 
L 93.128609 228.227027 
L 93.425591 227.770507 
L 93.722574 227.968501 
L 94.019557 228.857654 
L 94.316539 230.583253 
L 94.613522 233.509699 
L 94.910505 238.679177 
L 95.207487 251.725203 
L 95.50447 246.758155 
L 95.801453 236.895843 
L 96.098436 232.265677 
L 96.395418 229.513455 
L 96.692401 227.846732 
L 96.989384 226.971545 
L 97.286366 226.773381 
L 97.583349 227.236448 
L 97.880332 228.434599 
L 98.177314 230.579732 
L 98.474297 234.212719 
L 98.77128 241.14891 
L 99.068263 274.991636 
L 99.365245 240.470278 
L 99.662228 233.63277 
L 99.959211 229.930334 
L 100.256193 227.677863 
L 100.553176 226.360824 
L 100.850159 225.776066 
L 101.147141 225.853924 
L 101.444124 226.614299 
L 101.741107 228.179736 
L 102.03809 230.865235 
L 102.335072 235.537552 
L 102.632055 246.13441 
L 102.929038 247.632341 
L 103.22602 235.769247 
L 103.523003 230.68701 
L 103.819986 227.718517 
L 104.116968 225.91542 
L 104.413951 224.938477 
L 104.710934 224.653028 
L 105.007916 225.030437 
L 105.304899 226.132237 
L 105.601882 228.151008 
L 105.898865 231.577344 
L 106.195847 237.985733 
L 106.49283 265.371322 
L 106.789813 239.271102 
L 107.086795 231.876905 
L 107.383778 227.976957 
L 107.680761 225.617034 
L 107.977743 224.22835 
L 108.274726 223.58807 
L 108.571709 223.616442 
L 108.868692 224.326598 
L 109.165674 225.834623 
L 109.462657 228.444437 
L 109.75964 232.986347 
L 110.056622 243.099576 
L 110.353605 246.200026 
L 110.650588 233.683964 
L 110.94757 228.474451 
L 111.244553 225.449852 
L 111.541536 223.61551 
L 111.838519 222.618584 
L 112.135501 222.318479 
L 112.432484 222.684028 
L 112.729467 223.777013 
L 113.026449 225.793984 
L 113.323432 229.23815 
L 113.620415 235.740266 
L 113.917397 266.987455 
L 114.21438 236.514295 
L 114.511363 229.251056 
L 114.808345 225.398019 
L 115.105328 223.068256 
L 115.402311 221.70464 
L 115.699294 221.087847 
L 115.996276 221.140931 
L 116.293259 221.882203 
L 116.590242 223.43893 
L 116.887224 226.142387 
L 117.184207 230.916027 
L 117.48119 242.174314 
L 117.778172 241.524982 
L 118.075155 230.376911 
L 118.372138 225.441575 
L 118.669121 222.548812 
L 118.966103 220.802184 
L 119.263086 219.875137 
L 119.560069 219.63912 
L 119.857051 220.073674 
L 120.154034 221.256757 
L 120.451017 223.41794 
L 120.747999 227.15265 
L 121.044982 234.549285 
L 121.341965 255.767067 
L 121.638948 231.975043 
L 121.93593 225.548577 
L 122.232913 222.006465 
L 122.529896 219.857163 
L 122.826878 218.624306 
L 123.123861 218.118259 
L 123.420844 218.280991 
L 123.717826 219.152296 
L 124.014809 220.896298 
L 124.311792 223.932191 
L 124.608774 229.512367 
L 124.905757 246.150416 
L 125.499723 225.658289 
L 125.796705 221.365995 
L 126.093688 218.796729 
L 126.390671 217.26492 
L 126.687653 216.507875 
L 126.984636 216.42944 
L 127.281619 217.037979 
L 127.578601 218.453109 
L 127.875584 220.991273 
L 128.172567 225.517678 
L 128.46955 235.911176 
L 128.766532 237.707628 
L 129.063515 225.643676 
L 129.360498 220.506821 
L 129.65748 217.514418 
L 129.954463 215.699883 
L 130.251446 214.716116 
L 130.548428 214.428407 
L 130.845411 214.818671 
L 131.142394 215.975943 
L 131.439377 218.155869 
L 131.736359 222.026903 
L 132.033342 230.071063 
L 132.330325 243.211232 
L 132.627307 225.227593 
L 132.92429 219.22345 
L 133.221273 215.842583 
L 133.518255 213.783064 
L 133.815238 212.610314 
L 134.112221 212.153588 
L 134.409203 212.373881 
L 134.706186 213.341457 
L 135.003169 215.281411 
L 135.300152 218.773626 
L 135.597134 225.793118 
L 135.894117 251.624662 
L 136.1911 223.810523 
L 136.488082 217.146653 
L 136.785065 213.495395 
L 137.082048 211.272976 
L 137.37903 209.97791 
L 137.676013 209.413547 
L 137.972996 209.529183 
L 138.269979 210.391411 
L 138.566961 212.228811 
L 138.863944 215.635254 
L 139.160927 222.64109 
L 139.457909 246.303637 
L 139.754892 220.199777 
L 140.051875 213.573675 
L 140.348857 209.935123 
L 140.64584 207.724539 
L 140.942823 206.438852 
L 141.239806 205.880286 
L 141.536788 206.006843 
L 141.833771 206.916222 
L 142.130754 208.923218 
L 142.427736 212.89839 
L 142.724719 222.594836 
L 143.021702 224.953666 
L 143.318684 212.329448 
L 143.615667 207.043994 
L 143.91265 204.026794 
L 144.209632 202.233653 
L 144.506615 201.268753 
L 144.803598 200.990055 
L 145.100581 201.455248 
L 145.397563 203.041443 
L 145.694546 207.064286 
L 145.991529 222.49286 
L 146.585494 200.595161 
L 146.882477 196.964532 
L 147.179459 195.255698 
L 147.476442 194.402888 
L 148.070408 193.691057 
L 148.664373 193.440818 
L 149.852304 193.29576 
L 151.931183 193.317672 
L 153.119113 193.525449 
L 153.713079 193.920111 
L 154.010061 194.372544 
L 154.307044 195.248978 
L 154.604027 197.063381 
L 154.90101 201.054235 
L 155.197992 211.199725 
L 155.494975 216.819976 
L 155.791958 205.579761 
L 156.08894 202.135268 
L 156.385923 200.770415 
L 156.682906 200.421753 
L 156.979888 200.790142 
L 157.276871 201.865153 
L 157.573854 203.842712 
L 157.870837 207.224616 
L 158.167819 213.437056 
L 158.464802 233.359935 
L 158.761785 217.944354 
L 159.058767 210.596737 
L 159.35575 207.25972 
L 159.652733 205.572255 
L 159.949715 204.876848 
L 160.246698 204.935585 
L 160.543681 205.699455 
L 160.840664 207.262725 
L 161.137646 209.915241 
L 161.434629 214.4211 
L 162.028594 231.622455 
L 162.325577 217.522806 
L 162.62256 212.469457 
L 162.919542 209.81811 
L 163.216525 208.430335 
L 163.513508 207.914642 
L 163.81049 208.127525 
L 164.107473 209.063021 
L 164.404456 210.847359 
L 164.701439 213.830877 
L 164.998421 219.003784 
L 165.295404 231.36288 
L 165.592387 228.82844 
L 165.889369 218.709519 
L 166.186352 214.316877 
L 166.483335 211.916035 
L 166.780317 210.658457 
L 167.0773 210.233637 
L 167.374283 210.530781 
L 167.671266 211.562431 
L 167.968248 213.475545 
L 168.265231 216.669663 
L 168.562214 222.332076 
L 168.859196 237.914129 
L 169.453162 219.91617 
L 169.750144 215.865728 
L 170.047127 213.614348 
L 170.34411 212.444538 
L 170.641093 212.085639 
L 170.938075 212.444887 
L 171.235058 213.54827 
L 171.532041 215.562371 
L 171.829023 218.935762 
L 172.126006 225.059777 
L 172.422989 245.305966 
L 172.719971 228.651702 
L 173.016954 220.918879 
L 173.313937 217.127063 
L 173.610919 215.002516 
L 173.907902 213.913483 
L 174.204885 213.617411 
L 174.501868 214.036593 
L 174.79885 215.211298 
L 175.095833 217.331257 
L 175.392816 220.903317 
L 175.689798 227.575614 
L 175.986781 260.147595 
L 176.283764 228.659054 
L 176.580746 221.684715 
L 176.877729 218.14093 
L 177.174712 216.147664 
L 177.471695 215.145974 
L 177.768677 214.919791 
L 178.06566 215.408075 
L 178.362643 216.668929 
L 178.659625 218.921901 
L 178.956608 222.751006 
L 179.253591 230.179761 
L 179.550573 254.016531 
L 179.847556 228.485616 
L 180.144539 222.228433 
L 180.441522 218.94686 
L 180.738504 217.098995 
L 181.035487 216.197119 
L 181.33247 216.054192 
L 181.629452 216.629478 
L 181.926435 218.003911 
L 182.223418 220.436426 
L 182.5204 224.619863 
L 183.114366 244.530621 
L 183.411348 228.138425 
L 183.708331 222.581378 
L 184.005314 219.580357 
L 184.302297 217.894088 
L 184.599279 217.107609 
L 184.896262 217.066757 
L 185.193245 217.755348 
L 185.490227 219.282961 
L 185.78721 221.961079 
L 186.084193 226.643925 
L 186.381175 237.114956 
L 186.678158 239.630883 
L 186.975141 227.663489 
L 187.272124 222.780305 
L 187.569106 220.072809 
L 187.866089 218.563427 
L 188.163072 217.910666 
L 188.460054 217.996615 
L 188.757037 218.833526 
L 189.05402 220.566079 
L 189.351002 223.577233 
L 189.647985 228.974781 
L 189.944968 243.121979 
L 190.835916 222.860792 
L 191.132899 220.451903 
L 191.429881 219.133927 
L 191.726864 218.636932 
L 192.023847 218.881001 
L 192.320829 219.909766 
L 192.617812 221.910687 
L 192.914795 225.368006 
L 193.211777 231.819707 
L 193.50876 256.995456 
L 193.805743 233.773596 
L 194.102726 226.531566 
L 194.399708 222.853378 
L 194.696691 220.742847 
L 194.993674 219.632221 
L 195.290656 219.318094 
L 195.587639 219.758046 
L 195.884622 221.029192 
L 196.181604 223.372877 
L 196.478587 227.426511 
L 196.77557 235.541713 
L 197.072553 250.137586 
L 197.369535 231.776012 
L 197.666518 225.943775 
L 197.963501 222.783101 
L 198.260483 220.97088 
L 198.557466 220.087789 
L 198.854449 219.989016 
L 199.151431 220.667113 
L 199.448414 222.235513 
L 199.745397 225.009232 
L 200.04238 229.877559 
L 200.339362 241.029444 
L 200.636345 241.20659 
L 200.933328 230.127048 
L 201.23031 225.363068 
L 201.527293 222.672779 
L 201.824276 221.164786 
L 202.121258 220.535077 
L 202.418241 220.687549 
L 202.715224 221.647028 
L 203.012206 223.570913 
L 203.309189 226.886735 
L 203.606172 232.942411 
L 203.903155 252.070441 
L 204.200137 236.55681 
L 204.49712 228.714377 
L 204.794103 224.797812 
L 205.091085 222.548998 
L 205.388068 221.359928 
L 205.685051 221.013155 
L 205.982033 221.452051 
L 206.279016 222.735137 
L 206.575999 225.083271 
L 206.872982 229.114587 
L 207.169964 237.145687 
L 207.466947 251.81816 
L 207.76393 233.376878 
L 208.060912 227.467653 
L 208.357895 224.264337 
L 208.654878 222.447697 
L 208.95186 221.598189 
L 209.248843 221.562489 
L 209.545826 222.319727 
L 209.842809 223.973732 
L 210.139791 226.850322 
L 210.436774 231.925549 
L 210.733757 244.25145 
L 211.030739 241.055368 
L 211.327722 230.920669 
L 211.624705 226.360717 
L 211.921687 223.796157 
L 212.21867 222.414395 
L 212.515653 221.92348 
L 212.812635 222.222157 
L 213.109618 223.332498 
L 213.406601 225.431395 
L 213.703584 229.032988 
L 214.000566 235.901583 
L 214.297549 267.30788 
L 214.594532 235.684198 
L 214.891514 228.921238 
L 215.188497 225.410902 
L 215.48548 223.441796 
L 215.782462 222.496613 
L 216.079445 222.376806 
L 216.376428 223.034893 
L 216.673411 224.556786 
L 216.970393 227.245158 
L 217.267376 231.990117 
L 217.564359 242.9722 
L 217.861341 243.371649 
L 218.158324 232.083448 
L 218.455307 227.299909 
L 218.752289 224.66131 
L 219.049272 223.249774 
L 219.346255 222.735103 
L 219.643238 223.000225 
L 219.94022 224.066009 
L 220.237203 226.119662 
L 220.534186 229.697098 
L 220.831168 236.621986 
L 221.128151 269.282996 
L 221.425134 236.103227 
L 221.722116 229.469942 
L 222.019099 226.04908 
L 222.316082 224.150386 
L 222.613064 223.254734 
L 222.910047 223.167437 
L 223.20703 223.856144 
L 223.504013 225.436138 
L 223.800995 228.266003 
L 224.097978 233.397112 
L 224.394961 246.47417 
L 224.691943 241.573097 
L 224.988926 231.928477 
L 225.285909 227.574365 
L 225.582891 225.162131 
L 225.879874 223.894031 
L 226.176857 223.483602 
L 226.47384 223.85006 
L 226.770822 225.058632 
L 227.067805 227.365415 
L 227.364788 231.47024 
L 227.958753 250.461467 
L 228.16 239.779555 
L 228.16 239.779555 
" clip-path="url(#pd4cb04fd58)" style="fill: none; stroke: #2a78d6; stroke-width: 1.5; stroke-linecap: round"/>
   </g>
   <g id="patch_6">
    <path d="M 34.92 290.92 
L 34.92 188.582326 
" style="fill: none; stroke: #000000; stroke-width: 0.7; stroke-linejoin: miter; stroke-linecap: square"/>
   </g>
   <g id="patch_7">
    <path d="M 34.92 290.92 
L 223.72 290.92 
" style="fill: none; stroke: #000000; stroke-width: 0.7; stroke-linejoin: miter; stroke-linecap: square"/>
   </g>
   <g id="line2d_54">
    <path d="M 34.92 257.992229 
L 35.216983 250.249222 
L 35.513965 246.185796 
L 35.810948 243.695737 
L 36.107931 242.172078 
L 36.404913 241.373832 
L 36.701896 241.205193 
L 36.998879 241.655604 
L 37.295862 242.794469 
L 37.592844 244.812583 
L 37.889827 248.176679 
L 38.18681 254.31846 
L 38.483792 272.967893 
L 38.780775 256.648319 
L 39.077758 249.017223 
L 39.37474 244.998496 
L 39.671723 242.537232 
L 39.968706 241.036777 
L 40.265689 240.259816 
L 40.562671 240.11266 
L 40.859654 240.586877 
L 41.156637 241.754888 
L 41.453619 243.81351 
L 41.750602 247.246266 
L 42.047585 253.560553 
L 42.344567 273.551159 
L 42.64155 255.177879 
L 42.938533 247.764432 
L 43.235516 243.82618 
L 43.532498 241.412773 
L 43.829481 239.948261 
L 44.126464 239.202689 
L 44.423446 239.086396 
L 44.720429 239.594385 
L 45.017412 240.803854 
L 45.314394 242.921253 
L 45.611377 246.456681 
L 45.90836 253.039927 
L 46.205342 274.577063 
L 46.502325 253.579955 
L 46.799308 246.475718 
L 47.096291 242.6515 
L 47.393273 240.304886 
L 47.690256 238.88975 
L 47.987239 238.186687 
L 48.284221 238.111697 
L 48.581204 238.664764 
L 48.878187 239.930013 
L 49.175169 242.127502 
L 49.472152 245.805744 
L 49.769135 252.779972 
L 50.066118 273.900882 
L 50.3631 251.866662 
L 50.660083 245.144521 
L 50.957066 241.464918 
L 51.254048 239.203077 
L 51.551031 237.850324 
L 51.848014 237.200868 
L 52.144996 237.178264 
L 52.441979 237.789061 
L 52.738962 239.12647 
L 53.035945 241.429035 
L 53.332927 245.299094 
L 53.62991 252.830706 
L 53.926893 269.533814 
L 54.223875 250.054709 
L 54.520858 243.768297 
L 54.817841 240.260579 
L 55.114823 238.100653 
L 55.411806 236.823155 
L 55.708789 236.238682 
L 56.005771 236.280065 
L 56.302754 236.96221 
L 56.599737 238.390071 
L 56.89672 240.826738 
L 57.193702 244.949393 
L 57.787668 264.117877 
L 58.08465 248.165793 
L 58.381633 242.34805 
L 58.678616 239.035272 
L 58.975598 236.993466 
L 59.272581 235.804305 
L 59.569564 235.296878 
L 59.866547 235.414869 
L 60.163529 236.183219 
L 60.460512 237.721761 
L 60.757495 240.325827 
L 61.054477 244.776045 
L 61.35146 254.258247 
L 61.648443 259.232399 
L 61.945425 246.234764 
L 62.242408 240.897963 
L 62.539391 237.798177 
L 62.836374 235.889938 
L 63.133356 234.803488 
L 63.430339 234.387968 
L 63.727322 234.599722 
L 64.024304 235.476472 
L 64.321287 237.158515 
L 64.61827 239.988747 
L 64.915252 244.913654 
L 65.212235 256.472026 
L 65.509218 254.832706 
L 65.8062 244.1902 
L 66.103183 239.356922 
L 66.400166 236.494119 
L 66.697149 234.73756 
L 66.994131 233.76846 
L 67.291114 233.458002 
L 67.588097 233.77678 
L 67.885079 234.777327 
L 68.182062 236.624153 
L 68.479045 239.718682 
L 68.776027 245.228574 
L 69.07301 260.048615 
L 69.666976 242.211416 
L 69.963958 237.841074 
L 70.260941 235.211356 
L 70.557924 233.610636 
L 70.854906 232.766723 
L 71.151889 232.572621 
L 71.448872 233.014372 
L 71.745854 234.162219 
L 72.042837 236.212651 
L 72.33982 239.651229 
L 72.636803 246.003768 
L 72.933785 267.911987 
L 73.230768 247.626076 
L 73.527751 240.209998 
L 73.824733 236.293789 
L 74.121716 233.907999 
L 74.418699 232.476625 
L 74.715681 231.772556 
L 75.012664 231.711289 
L 75.309647 232.296285 
L 75.606629 233.619813 
L 75.903612 235.921208 
L 76.200595 239.808488 
L 76.497578 247.419029 
L 76.79456 264.274775 
L 77.091543 244.463719 
L 77.388526 238.21469 
L 77.685508 234.731699 
L 77.982491 232.594726 
L 78.279474 231.343499 
L 78.576456 230.79317 
L 78.873439 230.882194 
L 79.170422 231.633723 
L 79.467405 233.167603 
L 79.764387 235.782053 
L 80.06137 240.272171 
L 80.358353 249.95419 
L 80.655335 254.361081 
L 80.952318 241.526917 
L 81.249301 236.237858 
L 81.546283 233.164522 
L 81.843266 231.278626 
L 82.140249 230.217543 
L 82.437232 229.835577 
L 82.734214 230.09454 
L 83.031197 231.040195 
L 83.32818 232.828226 
L 83.625162 235.841545 
L 83.922145 241.181362 
L 84.219128 254.98327 
L 85.110076 234.28746 
L 85.407058 231.601211 
L 85.704041 229.968405 
L 86.001024 229.107723 
L 86.298007 228.90967 
L 86.594989 229.360565 
L 86.891972 230.533366 
L 87.188955 232.632249 
L 87.485937 236.168442 
L 87.78292 242.796411 
L 88.079903 267.463442 
L 88.376885 243.271646 
L 88.673868 236.172877 
L 88.970851 232.369144 
L 89.267834 230.049847 
L 89.564816 228.672543 
L 89.861799 228.023662 
L 90.158782 228.027077 
L 90.455764 228.694866 
L 90.752747 230.133579 
L 91.04973 232.616041 
L 91.346712 236.859383 
L 91.940678 254.186108 
L 92.237661 239.336237 
L 92.534643 233.7137 
L 92.831626 230.49316 
L 93.128609 228.520177 
L 93.425591 227.400459 
L 93.722574 226.976236 
L 94.019557 227.203002 
L 94.316539 228.1218 
L 94.613522 229.883434 
L 94.910505 232.863679 
L 95.207487 238.143407 
L 95.50447 251.686769 
L 95.801453 245.38419 
L 96.098436 235.928074 
L 96.395418 231.396067 
L 96.692401 228.691466 
L 96.989384 227.054468 
L 97.286366 226.200747 
L 97.583349 226.020537 
L 97.880332 226.501524 
L 98.177314 227.721263 
L 98.474297 229.897633 
L 98.77128 233.586153 
L 99.068263 240.668167 
L 99.365245 264.108683 
L 99.662228 239.38685 
L 99.959211 232.720973 
L 100.256193 229.076266 
L 100.553176 226.852456 
L 100.850159 225.551827 
L 101.147141 224.97733 
L 101.444124 225.062264 
L 101.741107 225.828565 
L 102.03809 227.400331 
L 102.335072 230.09387 
L 102.632055 234.77765 
L 102.929038 245.36842 
L 103.22602 246.622073 
L 103.523003 234.943657 
L 103.819986 229.884097 
L 104.116968 226.92184 
L 104.413951 225.118876 
L 104.710934 224.138629 
L 105.007916 223.847795 
L 105.304899 224.218233 
L 105.601882 225.310949 
L 105.898865 227.316226 
L 106.195847 230.716518 
L 106.49283 237.045236 
L 106.789813 260.696296 
L 107.086795 238.623427 
L 107.383778 231.159564 
L 107.680761 227.229764 
L 107.977743 224.84913 
L 108.274726 223.442414 
L 108.571709 222.784665 
L 108.868692 222.795068 
L 109.165674 223.485128 
L 109.462657 224.967174 
L 109.75964 227.535872 
L 110.056622 231.989081 
L 110.353605 241.70471 
L 110.650588 246.121669 
L 110.94757 233.115752 
L 111.244553 227.803297 
L 111.541536 224.727056 
L 111.838519 222.856518 
L 112.135501 221.829389 
L 112.432484 221.501061 
L 112.729467 221.837503 
L 113.026449 222.896008 
L 113.323432 224.8642 
L 113.620415 228.220724 
L 113.917397 234.481675 
L 114.21438 258.101456 
L 114.511363 236.239058 
L 114.808345 228.694354 
L 115.105328 224.738898 
L 115.402311 222.348593 
L 115.699294 220.940001 
L 115.996276 220.284672 
L 116.293259 220.300705 
L 116.590242 221.00101 
L 116.887224 222.504371 
L 117.184207 225.12273 
L 117.48119 229.712531 
L 117.778172 240.1023 
L 118.075155 242.026033 
L 118.372138 229.995476 
L 118.669121 224.86797 
L 118.966103 221.880642 
L 119.263086 220.071106 
L 119.560069 219.094475 
L 119.857051 218.813746 
L 120.154034 219.201825 
L 120.451017 220.328358 
L 120.747999 222.406746 
L 121.044982 225.987442 
L 121.341965 232.924521 
L 121.638948 262.51558 
L 121.93593 231.876515 
L 122.232913 225.085626 
L 122.529896 221.400339 
L 122.826878 219.166329 
L 123.123861 217.871734 
L 123.420844 217.313307 
L 123.717826 217.424494 
L 124.014809 218.23622 
L 124.311792 219.898304 
L 124.608774 222.796236 
L 124.905757 228.050467 
L 125.20274 242.170844 
L 126.093688 220.838299 
L 126.390671 218.157319 
L 126.687653 216.550884 
L 126.984636 215.734842 
L 127.281619 215.601489 
L 127.578601 216.149508 
L 127.875584 217.485741 
L 128.172567 219.900769 
L 128.46955 224.175381 
L 128.766532 233.539371 
L 129.063515 239.179907 
L 129.360498 225.477301 
L 129.65748 220.040991 
L 129.954463 216.912143 
L 130.251446 215.013427 
L 130.548428 213.966918 
L 130.845411 213.623413 
L 131.142394 213.953956 
L 131.439377 215.035712 
L 131.736359 217.103121 
L 132.033342 220.764452 
L 132.330325 228.155739 
L 132.627307 247.873779 
L 132.92429 225.197973 
L 133.221273 218.801844 
L 133.518255 215.26514 
L 133.815238 213.117218 
L 134.112221 211.882687 
L 134.409203 211.373288 
L 134.706186 211.538271 
L 135.003169 212.436835 
L 135.300152 214.277014 
L 135.597134 217.594141 
L 135.894117 224.138059 
L 136.1911 264.859222 
L 136.488082 223.782036 
L 136.785065 216.701871 
L 137.082048 212.903049 
L 137.37903 210.604501 
L 137.676013 209.260519 
L 137.972996 208.656112 
L 138.269979 208.729339 
L 138.566961 209.537531 
L 138.863944 211.29791 
L 139.160927 214.576263 
L 139.457909 221.253387 
L 139.754892 253.649717 
L 140.051875 219.838502 
L 140.348857 212.966575 
L 140.64584 209.251695 
L 140.942823 207.013061 
L 141.239806 205.716851 
L 141.536788 205.151618 
L 141.833771 205.268304 
L 142.130754 206.163279 
L 142.427736 208.157987 
L 142.724719 212.150601 
L 143.021702 222.081045 
L 143.318684 223.491804 
L 143.615667 211.256125 
L 143.91265 206.090885 
L 144.209632 203.173801 
L 144.506615 201.472329 
L 144.803598 200.589394 
L 145.100581 200.388728 
L 145.397563 200.954685 
L 145.694546 202.760462 
L 145.991529 207.580639 
L 146.288511 244.212469 
L 146.585494 205.496432 
L 146.882477 198.710918 
L 147.179459 195.910199 
L 147.476442 194.649347 
L 147.773425 194.036191 
L 148.36739 193.529605 
L 149.258338 193.305355 
L 151.040235 193.234038 
L 153.119113 193.319317 
L 154.010061 193.554803 
L 154.307044 193.762598 
L 154.604027 194.150512 
L 154.90101 194.932087 
L 155.197992 196.641095 
L 155.494975 200.674001 
L 155.791958 211.964374 
L 156.08894 213.541993 
L 156.385923 204.132526 
L 156.682906 201.146256 
L 156.979888 200.018718 
L 157.276871 199.824853 
L 157.573854 200.325168 
L 157.870837 201.559697 
L 158.167819 203.797699 
L 158.464802 207.708145 
L 158.761785 215.447125 
L 159.058767 237.227038 
L 159.35575 214.142515 
L 159.652733 208.5284 
L 159.949715 205.831048 
L 160.246698 204.510913 
L 160.543681 204.077754 
L 160.840664 204.363091 
L 161.137646 205.368338 
L 161.434629 207.249407 
L 161.731612 210.41771 
L 162.028594 216.04303 
L 162.325577 231.045468 
L 162.919542 214.406583 
L 163.216525 210.487424 
L 163.513508 208.387141 
L 163.81049 207.358838 
L 164.107473 207.126263 
L 164.404456 207.604208 
L 164.701439 208.836559 
L 164.998421 211.021109 
L 165.295404 214.674263 
L 165.592387 221.461185 
L 165.889369 254.089393 
L 166.186352 222.62588 
L 166.483335 215.800755 
L 166.780317 212.3781 
L 167.0773 210.493605 
L 167.374283 209.591701 
L 167.671266 209.45978 
L 167.968248 210.040965 
L 168.265231 211.398005 
L 168.562214 213.75702 
L 168.859196 217.719145 
L 169.156179 225.402337 
L 169.453162 245.767496 
L 169.750144 223.207352 
L 170.047127 217.146885 
L 170.34411 213.973227 
L 170.641093 212.211994 
L 170.938075 211.390938 
L 171.235058 211.327149 
L 171.532041 211.978782 
L 171.829023 213.422251 
L 172.126006 215.909292 
L 172.422989 220.120433 
L 172.719971 228.639625 
L 173.016954 240.534461 
L 173.313937 223.866391 
L 173.610919 218.287296 
L 173.907902 215.29424 
L 174.204885 213.632765 
L 174.501868 212.881795 
L 174.79885 212.878117 
L 175.095833 213.592171 
L 175.392816 215.114799 
L 175.689798 217.726791 
L 175.986781 222.199316 
L 176.580746 237.962389 
L 176.877729 224.367526 
L 177.174712 219.197817 
L 177.471695 216.376452 
L 177.768677 214.816458 
L 178.06566 214.138775 
L 178.362643 214.19837 
L 178.659625 214.979472 
L 178.956608 216.590917 
L 179.253591 219.349824 
L 179.550573 224.143348 
L 179.847556 235.029996 
L 180.144539 236.092452 
L 180.441522 224.682424 
L 180.738504 219.910567 
L 181.035487 217.270058 
L 181.33247 215.821256 
L 181.629452 215.225935 
L 181.926435 215.359258 
L 182.223418 216.22276 
L 182.5204 217.948927 
L 182.817383 220.903774 
L 183.114366 226.14117 
L 183.411348 239.322937 
L 183.708331 234.395711 
L 184.005314 224.793217 
L 184.302297 220.438289 
L 184.599279 217.998178 
L 184.896262 216.675781 
L 185.193245 216.177102 
L 185.490227 216.4016 
L 185.78721 217.372815 
L 186.084193 219.254021 
L 186.381175 222.478397 
L 186.678158 228.354852 
L 186.975141 246.189267 
L 187.272124 232.802517 
L 187.569106 224.73606 
L 187.866089 220.811715 
L 188.163072 218.58922 
L 188.460054 217.408908 
L 188.757037 217.024671 
L 189.05402 217.364428 
L 189.351002 218.478544 
L 189.647985 220.5698 
L 189.944968 224.166094 
L 190.241951 230.994618 
L 190.538933 259.926114 
L 190.835916 231.317754 
L 191.132899 224.554632 
L 191.429881 221.061403 
L 191.726864 219.069353 
L 192.023847 218.04778 
L 192.320829 217.800803 
L 192.617812 218.288151 
L 192.914795 219.591704 
L 193.211777 221.96531 
L 193.50876 226.077536 
L 193.805743 234.417154 
L 194.102726 246.721219 
L 194.399708 229.940574 
L 194.696691 224.278794 
L 194.993674 221.206604 
L 195.290656 219.455643 
L 195.587639 218.612578 
L 195.884622 218.531847 
L 196.181604 219.206825 
L 196.478587 220.755459 
L 196.77557 223.499392 
L 197.072553 228.328165 
L 197.369535 239.322215 
L 197.666518 239.768143 
L 197.963501 228.69705 
L 198.260483 223.949794 
L 198.557466 221.277908 
L 198.854449 219.777366 
L 199.151431 219.136685 
L 199.448414 219.257539 
L 199.745397 220.166994 
L 200.04238 222.025088 
L 200.339362 225.250343 
L 200.636345 231.112629 
L 200.933328 248.014795 
L 201.527293 227.56879 
L 201.824276 223.585411 
L 202.121258 221.295794 
L 202.418241 220.060046 
L 202.715224 219.651662 
L 203.012206 220.014165 
L 203.309189 221.208055 
L 203.606172 223.44678 
L 203.903155 227.30021 
L 204.200137 234.769073 
L 204.49712 253.057371 
L 204.794103 232.761991 
L 205.091085 226.545637 
L 205.388068 223.210161 
L 205.685051 221.292714 
L 205.982033 220.342392 
L 206.279016 220.199974 
L 206.575999 220.844796 
L 206.872982 222.37407 
L 207.169964 225.07925 
L 207.466947 229.791399 
L 207.76393 240.198272 
L 208.060912 242.060856 
L 208.357895 230.521023 
L 208.654878 225.610557 
L 208.95186 222.847722 
L 209.248843 221.305423 
L 209.545826 220.666253 
L 209.842809 220.822655 
L 210.139791 221.787635 
L 210.436774 223.708307 
L 210.733757 227.005132 
L 211.030739 233.013667 
L 211.327722 250.926698 
L 211.624705 236.475656 
L 211.921687 228.677028 
L 212.21867 224.765317 
L 212.515653 222.534459 
L 212.812635 221.378947 
L 213.109618 221.075068 
L 213.406601 221.558013 
L 213.703584 222.88206 
L 214.000566 225.274998 
L 214.297549 229.390782 
L 214.891514 248.618579 
L 215.188497 232.785182 
L 215.48548 227.119092 
L 215.782462 224.035652 
L 216.079445 222.317065 
L 216.376428 221.558827 
L 216.673411 221.607567 
L 216.970393 222.444157 
L 217.267376 224.186173 
L 217.564359 227.202334 
L 217.861341 232.621799 
L 218.158324 246.919323 
L 219.049272 225.821872 
L 219.346255 223.464295 
L 219.643238 222.241044 
L 219.94022 221.88256 
L 220.237203 222.300063 
L 220.534186 223.536478 
L 220.831168 225.813857 
L 221.128151 229.767125 
L 221.425134 237.74063 
L 221.722116 251.012581 
L 222.019099 233.719299 
L 222.316082 227.907923 
L 222.613064 224.802022 
L 222.910047 223.091059 
L 223.20703 222.339522 
L 223.504013 222.383019 
L 223.800995 223.205966 
L 224.097978 224.943092 
L 224.394961 227.999132 
L 224.691943 233.605641 
L 224.988926 249.320302 
L 225.582891 230.306392 
L 225.879874 226.303063 
L 226.176857 224.074071 
L 226.47384 222.936899 
L 226.770822 222.638085 
L 227.067805 223.110343 
L 227.364788 224.430011 
L 227.66177 226.875992 
L 227.958753 231.223197 
L 228.16 237.574085 
L 228.16 237.574085 
" clip-path="url(#pd4cb04fd58)" style="fill: none; stroke-dasharray: 1.3,1.82; stroke-dashoffset: 0; stroke: #eb6834; stroke-width: 1.3; stroke-linecap: round"/>
   </g>
   <g id="text_22">
    <text style="font-size: 9.5px; font-family: 'STIX Two Text', 'STIXGeneral', 'Times New Roman', 'DejaVu Serif', serif; text-anchor: start" x="34.92" y="182.582326" transform="rotate(-0 34.92 182.582326)">Conversion (signal → idler)</text>
   </g>
  </g>
  <g id="legend_1">
   <g id="line2d_55">
    <path d="M 70.868 7.84 
L 81.268 7.84 
L 91.668 7.84 
" style="fill: none; stroke: #2a78d6; stroke-width: 1.5; stroke-linecap: round"/>
   </g>
   <g id="text_23">
    <text style="font-size: 8px; font-family: 'STIX Two Text', 'STIXGeneral', 'Times New Roman', 'DejaVu Serif', serif; text-anchor: start" x="98.068" y="10.64" transform="rotate(-0 98.068 10.64)">Python (transfer-matrix)</text>
   </g>
   <g id="line2d_56">
    <path d="M 70.868 19.84 
L 81.268 19.84 
L 91.668 19.84 
" style="fill: none; stroke-dasharray: 1.3,1.82; stroke-dashoffset: 0; stroke: #eb6834; stroke-width: 1.3; stroke-linecap: round"/>
   </g>
   <g id="text_24">
    <text style="font-size: 8px; font-family: 'STIX Two Text', 'STIXGeneral', 'Times New Roman', 'DejaVu Serif', serif; text-anchor: start" x="98.068" y="22.64" transform="rotate(-0 98.068 22.64)">Julia (JosephsonCircuits.jl)</text>
   </g>
  </g>
 </g>
 <defs>
  <clipPath id="p3abb49ee03">
   <rect x="34.92" y="43.469" width="188.8" height="117.688326"/>
  </clipPath>
  <clipPath id="pd4cb04fd58">
   <rect x="34.92" y="188.582326" width="188.8" height="102.337674"/>
  </clipPath>
 </defs>
</svg>
